<?xml version="1.0" encoding="utf-8"?><svg xmlns="http://www.w3.org/2000/svg" xmlns:xlink="http://www.w3.org/1999/xlink"><symbol viewBox="0 0 39.76 42.16" id="icon-calendar"><title>icon-calendar</title><path d="M0 11.12h9.51v8.47H0z"/><path data-name="grid-item" d="M15.26 11.12h9.51v8.47h-9.51zM30.26 11.12h9.51v8.47h-9.51zM0 22.42h9.51v8.46H0zM15.26 22.42h9.51v8.46h-9.51z"/><path data-name="grid-item" fill="#ed1c24" d="M30.26 22.42h9.51v8.46h-9.51z"/><path data-name="grid-item" d="M0 33.71h9.51v8.45H0zM15.26 33.71h9.51v8.45h-9.51zM30.26 33.71h9.51v8.45h-9.51z"/><path d="M35.4 0h-31a3.72 3.72 0 1 0 0 7.45h31a3.72 3.72 0 0 0 0-7.45"/></symbol><symbol viewBox="0 0 44.3 44.1" id="icon-close"><title>icon-close</title><path d="M29.88 20.45L42.94 7.39a4.39 4.39 0 0 0 .43-5.85 4.25 4.25 0 0 0-6.27-.3L23.89 14.46a2.44 2.44 0 0 1-3.45 0l-13-13A4.4 4.4 0 0 0 1.54 1a4.25 4.25 0 0 0-.3 6.27l13.2 13.18a2.44 2.44 0 0 1 0 3.45L1.64 36.71a4.4 4.4 0 0 0-.44 5.85 4.25 4.25 0 0 0 6.27.3l13-13a2.44 2.44 0 0 1 3.45 0L36.7 42.71a4.39 4.39 0 0 0 5.85.43 4.25 4.25 0 0 0 .3-6.27l-13-13a2.44 2.44 0 0 1 .03-3.42z"/></symbol><symbol viewBox="0 0 52.95 44.21" id="icon-contact"><title>icon-contact</title><path d="M44.83 0H8.12A8.13 8.13 0 0 0 0 8.12v28a8.13 8.13 0 0 0 8.12 8.12h36.7A8.15 8.15 0 0 0 53 36.09v-28A8.13 8.13 0 0 0 44.83 0zM6 9.81l18.28 18.27a3.1 3.1 0 0 0 2.46.88 3.1 3.1 0 0 0 2.47-.89L47 10.33v25.76a2.13 2.13 0 0 1-1.69 2.08 2.14 2.14 0 0 1-.43 0H8.12a2.15 2.15 0 0 1-.32 0A2.1 2.1 0 0 1 6 36.09zM11 6h31.47L26.74 21.73z"/></symbol><symbol viewBox="0 0 49.14 41.19" id="icon-explore"><title>icon-explore</title><g fill="#ed1c24"><path d="M46 0H3.12a3.12 3.12 0 1 0 0 6.23H46A3.12 3.12 0 0 0 46 0zM37.56 17.67h-26a3.12 3.12 0 1 0 0 6.23h26a3.12 3.12 0 0 0 0-6.23zM29.46 35h-9.78a3.12 3.12 0 1 0 0 6.24h9.78a3.12 3.12 0 0 0 0-6.24z"/></g></symbol><symbol viewBox="0 0 47.35 47.14" id="icon-facebook"><title>icon-facebook</title><path d="M23.79 0a23.57 23.57 0 1 0 23.56 23.57A23.6 23.6 0 0 0 23.79 0zm5.75 15.57h-3a1 1 0 0 0-1.06 1.16v2.51h3.82l-.44 4.27h-3.29v12h-5v-12h-2.5v-4.23h2.39v-2.76c0-2 1-5 5.12-5h4z" fill="#231f20"/></symbol><symbol viewBox="0 0 50.42 50.47" id="icon-gallery-solid"><title>icon-gallery-solid</title><path d="M8.27 35V12.56H3.12A3.12 3.12 0 0 0 0 15.68v31.9a3.12 3.12 0 0 0 3.12 3.12H35a3.12 3.12 0 0 0 3.12-3.12v-5.43H15.4A7.13 7.13 0 0 1 8.27 35z"/><path d="M47.3 0H15.4a3.12 3.12 0 0 0-3.12 3.12V35a3.12 3.12 0 0 0 3.12 3.12h31.9A3.12 3.12 0 0 0 50.42 35V3.12A3.12 3.12 0 0 0 47.3 0z"/></symbol><symbol viewBox="0 0 55.22 55.47" id="icon-gallery-stroke"><title>icon-gallery-stroke</title><path d="M47.09 0h-28A8.13 8.13 0 0 0 11 8.12v3.14H8.12A8.13 8.13 0 0 0 0 19.38v28a8.13 8.13 0 0 0 8.12 8.12h28a8.13 8.13 0 0 0 8.12-8.12v-3.17h2.88a8.13 8.13 0 0 0 8.12-8.12v-28A8.13 8.13 0 0 0 47.09 0zm3.12 36.09a3.12 3.12 0 0 1-3.12 3.12h-28A3.12 3.12 0 0 1 16 36.09v-28A3.12 3.12 0 0 1 19.13 5h28a3.12 3.12 0 0 1 3.12 3.12zm-11 11.26a3.12 3.12 0 0 1-3.12 3.12h-28A3.12 3.12 0 0 1 5 47.35v-28a3.12 3.12 0 0 1 3.12-3.12H11v19.86a8.13 8.13 0 0 0 8.12 8.12h20.09z"/></symbol><symbol viewBox="0 0 43.79 43.03" id="icon-hamburger"><title>icon-hamburger</title><path data-name="bun bottom" d="M39.56 0H4.24a4.24 4.24 0 1 0 0 8.48h35.32a4.24 4.24 0 0 0 0-8.48"/><path d="M39.56 17.22H4.24a4.24 4.24 0 1 0 0 8.48h35.32a4.24 4.24 0 0 0 0-8.48"/><path data-name="bun bottom" d="M39.56 34.55H4.24a4.24 4.24 0 1 0 0 8.48h35.32a4.24 4.24 0 0 0 0-8.48"/></symbol><symbol viewBox="0 0 47.35 47.14" id="icon-instagram"><title>icon-instagram</title><g fill="#231f20"><path d="M29.29 13.15q-5.62-.09-11.24 0a4.39 4.39 0 0 0-4.67 4.12c-.26 2.05-.17 10-.12 11.87A4.63 4.63 0 0 0 18.09 34q5.59.09 11.18 0a4.6 4.6 0 0 0 4.81-4.79q.1-5.62 0-11.24a4.6 4.6 0 0 0-4.79-4.82zm-5.59 17a6.62 6.62 0 1 1 6.6-6.64 6.62 6.62 0 0 1-6.61 6.67zm6.85-11.91A1.62 1.62 0 0 1 29 16.65a1.58 1.58 0 0 1 1.6-1.51 1.55 1.55 0 0 1 1.53 1.57 1.58 1.58 0 0 1-1.59 1.56z"/><path d="M23.68 0a23.57 23.57 0 1 0 23.57 23.57A23.6 23.6 0 0 0 23.68 0zm12.74 29.72a6.79 6.79 0 0 1-5.26 6.34c-.72.17-13.33.27-13.63.25a6.76 6.76 0 0 1-6.22-4.84c-.25-.81-.39-13.84-.37-14.11a6.82 6.82 0 0 1 5-6.23c.76-.21 13.63-.32 13.89-.3a6.78 6.78 0 0 1 6.35 5.34c.17.69.25 13.26.24 13.55z"/><path d="M23.66 19.31a4.26 4.26 0 1 0 4.28 4.27 4.22 4.22 0 0 0-4.28-4.27z"/></g></symbol><symbol viewBox="0 0 92.55 43.94" id="icon-label"><title>icon-label</title><path d="M90.67 18.23L73.79 1.34A4.55 4.55 0 0 0 70.08 0H3.26A3.26 3.26 0 0 0 0 3.26v37.41a3.26 3.26 0 0 0 3.26 3.26h66.82v-.06a4.22 4.22 0 0 0 3.57-1.18L91 25.31c1.83-1.79 2.4-4.31-.33-7.08z"/></symbol><symbol viewBox="0 0 26.13 43.94" id="icon-next"><title>icon-next</title><path d="M24.25 18.23L7.37 1.34A4.38 4.38 0 0 0 1.56.91a4.25 4.25 0 0 0-.32 6.29l13.23 13.23a2.15 2.15 0 0 1 0 3L1.38 36.57a4.38 4.38 0 0 0-.43 5.81 4.25 4.25 0 0 0 6.29.32l17.38-17.39c1.79-1.79 2.38-4.31-.37-7.08z"/></symbol><symbol viewBox="0 0 25.51 26.53" id="icon-pause"><title>icon-pause</title><g fill="#ed1c24"><path d="M25.51 21.85V4.68a4.68 4.68 0 1 0-9.36 0v17.17a4.68 4.68 0 0 0 9.36 0M9.37 21.85V4.68a4.68 4.68 0 1 0-9.37 0v17.17a4.68 4.68 0 0 0 9.37 0"/></g></symbol><symbol viewBox="0 0 47.14 47.14" id="icon-play"><title>icon-play</title><path d="M23.57 0a23.57 23.57 0 1 0 23.57 23.57A23.6 23.6 0 0 0 23.57 0zm-4.34 35.27v-23.4a1.54 1.54 0 0 1 2.62-1.09l9.8 9.8a4.22 4.22 0 0 1 0 6l-9.8 9.8a1.54 1.54 0 0 1-2.62-1.11z" fill="#ed1c24"/><path d="M23.23 17.82v11.5l5.59-5.59a.22.22 0 0 0 0-.31z" fill="#fff"/><path d="M31.66 20.58l-9.8-9.8a1.54 1.54 0 0 0-2.62 1.09v23.4a1.54 1.54 0 0 0 2.62 1.09l9.8-9.8a4.22 4.22 0 0 0 0-5.98zm-2.83 3.14l-5.59 5.59V17.82l5.59 5.59a.22.22 0 0 1 0 .31z" fill="#fff"/></symbol><symbol viewBox="0 0 26.13 43.94" id="icon-previous"><title>icon-previous</title><path d="M1.88 18.23L18.76 1.34a4.38 4.38 0 0 1 5.81-.43 4.25 4.25 0 0 1 .32 6.29L11.66 20.43a2.15 2.15 0 0 0 0 3l13.1 13.1a4.38 4.38 0 0 1 .43 5.81 4.25 4.25 0 0 1-6.29.32L1.52 25.31c-1.8-1.79-2.37-4.31.36-7.08z"/></symbol><symbol viewBox="0 0 44.38 45.47" id="icon-search"><title>icon-search</title><path d="M43.13 38.23l-8.82-8.72A18.88 18.88 0 1 0 28 35.23l9.13 9a4.24 4.24 0 0 0 6-6zm-24.3-8.78a10.62 10.62 0 1 1 10.62-10.62 10.63 10.63 0 0 1-10.62 10.62z"/></symbol><symbol viewBox="0 0 47.35 47.14" id="icon-twitter"><title>icon-twitter</title><path d="M23.68 0a23.57 23.57 0 1 0 23.57 23.57A23.6 23.6 0 0 0 23.68 0zm9.73 18.64a14.12 14.12 0 0 1-1.5 7 13.34 13.34 0 0 1-8.81 7.11 13.63 13.63 0 0 1-11-1.78 9.19 9.19 0 0 0 7.07-2 4.79 4.79 0 0 1-4.41-3.38c1.57.24 2-.17 2-.17a4.79 4.79 0 0 1-3.76-4.8c1.64.79 2.08.48 2.08.48a4.93 4.93 0 0 1-1.4-6.46c4.68 5.47 10 5.12 10 5.12-.14-1.19-.14-4.35 3-5.62a5.14 5.14 0 0 1 5.47 1.16 11.71 11.71 0 0 0 3.43-1.25c-.25 1.34-2.48 2.79-2.48 2.79a11.41 11.41 0 0 0 2.8-.79 14.79 14.79 0 0 1-2.49 2.59z" fill="#231f20"/></symbol><symbol viewBox="0 0 47.35 47.14" id="icon-youtube"><title>icon-youtube</title><g fill="#231f20"><path d="M28.76 22.35l-3.89-2.43-3.7-2.31a1 1 0 0 0-1.55.58 3 3 0 0 0 0 .5v10.06a1 1 0 0 0 1.58.79l2.15-1.34 3.77-2.36c.77-.49 1.56-1 2.32-1.46a1 1 0 0 0 0-1.6c-.23-.17-.44-.3-.68-.43z"/><path d="M23.68 0a23.57 23.57 0 1 0 23.57 23.57A23.6 23.6 0 0 0 23.68 0zM38 26.27c0 .53-.09 1.06-.14 1.59a14 14 0 0 1-.47 2.95 3.41 3.41 0 0 1-2.71 2.53 17.7 17.7 0 0 1-2.5.25c-1.48.08-3 .16-4.43.17h-8.44c-2.07 0-4.13-.14-6.19-.31a3.62 3.62 0 0 1-3.27-2.94c-.2-1.08-.29-2.19-.43-3.28 0-.31-.06-.62-.08-.93v-5.4l.14-1.59a14.29 14.29 0 0 1 .52-2.96 3.42 3.42 0 0 1 2.69-2.55 17.21 17.21 0 0 1 2.52-.25c1.47-.08 2.94-.16 4.41-.17h8.46c2.07 0 4.13.14 6.19.31a3.66 3.66 0 0 1 3.27 2.94c.17 1.08.29 2.17.42 3.26 0 .32.06.63.09 1z"/></g></symbol><symbol viewBox="0 0 69 75.7" id="logo-backbeat"><title>logo-backbeat</title><g fill="#231f20"><path d="M67.45 32.12a10.2 10.2 0 0 0 1-4.51 10.35 10.35 0 0 0-1.66-5.55 12.15 12.15 0 0 0-3.47-3.52 11.65 11.65 0 0 0 1.79-2.91 10.45 10.45 0 0 0 .83-4.28 10.2 10.2 0 0 0-1.09-4.49A11.82 11.82 0 0 0 62 3.23a13.36 13.36 0 0 0-4.1-2.4 13.72 13.72 0 0 0-5-.83L9.68.62l.1 6.84 10.87-.15.09 6.29 7.68-.11-.09-6.24h.29L56 6.85l4.2 4.62-4.07 4.74-4.66.07.1 6.87 4.2-.06a7.18 7.18 0 0 1 3.71 1.37 4.6 4.6 0 0 1 1.28 1.46 3.76 3.76 0 0 1 .46 1.79 3.71 3.71 0 0 1-.41 1.75 4.84 4.84 0 0 1-1.2 1.54 6.22 6.22 0 0 1-1.94 1.07 7.62 7.62 0 0 1-2.41.41h-.7l-25.85.37-.09-6.21-7.68.11L21 33l.1 6.83 30.73-.44 3.83-.06a14 14 0 0 0 5-1 13.29 13.29 0 0 0 4.06-2.52 11.81 11.81 0 0 0 2.73-3.69z"/><path d="M59 48.71l-10.87.15-.13-6.34-7 .1.09 6.26h-3.17l-26.27.37-4.2-4.62 4.07-4.74 6.38-.09-.06-6.8h-2.68a7.39 7.39 0 0 1-1.71-.32 5.92 5.92 0 0 1-1.94-1 5.35 5.35 0 0 1-1.3-1.51 3.59 3.59 0 0 1-.48-1.77 3.5 3.5 0 0 1 .43-1.74 5.37 5.37 0 0 1 1.26-1.55 5.94 5.94 0 0 1 1.91-1.07 7.62 7.62 0 0 1 2.41-.41h1.16l11.34-.16 12.52-.18.09 6.21 7.67-.09-.17-13.1-26.86.38h-.71l-4.69.07h-2a13.46 13.46 0 0 0-7.77 3.42A11.81 11.81 0 0 0 3.59 24a10.2 10.2 0 0 0-1 4.52 10.46 10.46 0 0 0 1 4.26 11.67 11.67 0 0 0 1.87 2.86 12.14 12.14 0 0 0-3.36 3.62 10.34 10.34 0 0 0-1.5 5.6 10.19 10.19 0 0 0 1.09 4.49A11.8 11.8 0 0 0 4.51 53a13.29 13.29 0 0 0 4.13 2.4 13.9 13.9 0 0 0 4.81.83h.22l45.42-.65zM3.46 71.17L3 71c-.32-.1-.81-.26-.81-.67s.45-.59.78-.59a1.92 1.92 0 0 1 1.21.47l.73-1.42a4.81 4.81 0 0 0-2.2-.58 2.28 2.28 0 0 0-2.43 2.4c0 1.36.75 1.66 1.9 2 .39.11 1.11.29 1.11.8s-.46.71-.89.71a2.51 2.51 0 0 1-1.62-.73L0 74.85a4.34 4.34 0 0 0 2.47.8 3.08 3.08 0 0 0 2-.66 2.39 2.39 0 0 0 .73-1.89c-.01-1.1-.76-1.64-1.74-1.93zM9.2 75.46h4v-1.54h-2.18V72.7h2.06v-1.54h-2.06v-1.18h2.18v-1.55h-4v7.03zM20.6 71.17l-.47-.17c-.32-.1-.81-.26-.81-.67s.45-.59.78-.59a1.92 1.92 0 0 1 1.21.47l.69-1.39a4.81 4.81 0 0 0-2.2-.58 2.28 2.28 0 0 0-2.42 2.36c0 1.36.75 1.66 1.9 2 .39.11 1.11.29 1.11.8s-.46.71-.89.71a2.51 2.51 0 0 1-1.62-.73l-.78 1.47a4.34 4.34 0 0 0 2.47.8 3.08 3.08 0 0 0 2-.66 2.39 2.39 0 0 0 .73-1.89c.03-1.1-.72-1.64-1.7-1.93zM29.48 71.17L29 71c-.32-.1-.81-.26-.81-.67s.45-.59.78-.59a1.92 1.92 0 0 1 1.21.47l.73-1.42a4.81 4.81 0 0 0-2.2-.58 2.28 2.28 0 0 0-2.42 2.36c0 1.36.75 1.66 1.9 2 .39.11 1.11.29 1.11.8s-.46.71-.89.71a2.51 2.51 0 0 1-1.62-.73l-.79 1.5a4.34 4.34 0 0 0 2.47.8 3.08 3.08 0 0 0 2-.66 2.39 2.39 0 0 0 .73-1.89c.01-1.1-.74-1.64-1.72-1.93zM35.21 68.43h1.83v7.03h-1.83zM44.9 68.2a3.75 3.75 0 1 0 3.89 3.62 3.75 3.75 0 0 0-3.89-3.62zm0 5.72a2 2 0 0 1-2-2.1 2 2 0 0 1 4 0 2 2 0 0 1-2 2.1zM57.97 72.73h-.02l-3.35-4.3h-1.82v7.03h1.82v-4.3h.02l3.35 4.3h1.83v-7.03h-1.83v4.3zM67.27 71.17L66.8 71c-.32-.1-.81-.26-.81-.67s.45-.59.78-.59a1.92 1.92 0 0 1 1.21.47l.73-1.42a4.81 4.81 0 0 0-2.2-.58 2.28 2.28 0 0 0-2.42 2.36c0 1.36.75 1.66 1.9 2 .39.11 1.11.29 1.11.8s-.46.71-.89.71a2.51 2.51 0 0 1-1.62-.73l-.78 1.47a4.34 4.34 0 0 0 2.47.8 3.08 3.08 0 0 0 2-.66 2.39 2.39 0 0 0 .72-1.87c0-1.09-.75-1.63-1.73-1.92z"/></g></symbol><symbol viewBox="0 0 72.72 62.1" id="logo-ew-mark"><title>logo-ew-mark</title><g fill="#231f20"><path d="M0 23.87V53a3 3 0 0 0 2.37 2.9l4.73 1 21.62 4.35a3 3 0 0 0 3.54-2.9v-1.14a3 3 0 0 0-2.37-2.9l-20.42-4.1a3 3 0 0 1-2.37-2.9v-2.64a3 3 0 0 1 3.54-2.9l18.09 3.64a3 3 0 0 0 3.54-2.9v-1.06a3 3 0 0 0-2.37-2.9L9.47 34.44a3 3 0 0 1-2.37-2.9V28.9a3 3 0 0 1 3.53-2.9l18.09 3.64a3 3 0 0 0 3.54-2.9v-1.06a3 3 0 0 0-2.37-2.9l-26.35-5.3A3 3 0 0 0 0 20.38zM65.62 20.64v26.85a3 3 0 0 1-2.34 2.89h-.06a3 3 0 0 1-3.57-2.89V23.33a3 3 0 0 0-3.59-2.88l-1.19.26a3 3 0 0 0-2.32 2.88v26.7a3 3 0 0 1-2.34 2.89l-1.13.24a3 3 0 0 1-3.57-2.89V26.3a3 3 0 0 0-3.59-2.88l-1.19.26a3 3 0 0 0-2.32 2.88v32.58A3 3 0 0 0 42 62l28.38-6a3 3 0 0 0 2.34-2.89V20.38a3 3 0 0 0-3.59-2.88l-1.19.26a3 3 0 0 0-2.32 2.88z"/></g><path d="M65.81 9.87l-30 6.34a1.81 1.81 0 0 1-.76 0L7.82 10.29a1.81 1.81 0 0 1 0-3.52L35.58.05a1.81 1.81 0 0 1 .8 0l29.44 6.3a1.8 1.8 0 0 1-.01 3.52z" fill="#ed1c24"/></symbol><symbol viewBox="0 0 110.35 45.3" id="logo-ew-type"><title>logo-ew-type</title><g fill="#231f20"><path d="M0 8.29h7.13L8.84 25l2-16.74h6.3l2 16.68 1.8-16.65h6.57L23 39.23h-7.4l-1.82-13.7-1.82 13.7H4.53zM34.83 26.68V32A1.06 1.06 0 0 0 36 33.26h.66A1.06 1.06 0 0 0 37.93 32v-2.88h7v3.7c0 4.47-2.27 6.74-6.74 6.74h-3.8c-4.48 0-6.74-2.27-6.74-6.74V14.7c0-4.48 2.27-6.74 6.74-6.74h3.76c4.48 0 6.74 2.27 6.74 6.74v12zm0-5.64h3v-5.68a1.06 1.06 0 0 0-1.22-1.22H36a1.06 1.06 0 0 0-1.22 1.22z"/><path data-name="letter-e" d="M53.11 26.68V32a1.06 1.06 0 0 0 1.22 1.22H55A1.06 1.06 0 0 0 56.21 32v-2.88h7v3.7c0 4.47-2.27 6.74-6.74 6.74h-3.8c-4.48 0-6.74-2.27-6.74-6.74V14.7c0-4.48 2.27-6.7 6.74-6.7h3.76c4.47 0 6.74 2.27 6.74 6.74v12zm0-5.64h3v-5.68a1.06 1.06 0 0 0-1.22-1.22h-.55a1.06 1.06 0 0 0-1.22 1.22z"/><path d="M82.52 8.29l-4 15.14 3.81 15.8h-7.71l-3-14.64v14.64h-7.33V0h7.29v22.87L75 8.29zM83.32 0h7.29v39.23h-7.29zM95.21 45.3l1.88-8.18L91.4 8.29h7.24l2.1 14.47 2.71-14.47h6.91l-8.23 37z"/><g><path data-name="letter-e" d="M.9.05h4.16v1.36H3.47v.94h1.59V3.7H3.47v.94h1.59V6H.9z"/><path d="M16.74 4.61c0 1.1-.46 1.43-1.63 1.43h-2.63c-1.13 0-1.56-.37-1.56-1.43V.05h2.58v4.21c0 .29.09.42.33.42s.33-.13.33-.42V.05h2.58zM25.5 3.89V2.57h3V6h-1.35l-.23-.43c-.17.36-.6.48-1.37.48h-1.4C23 6 22.58 5.67 22.58 4.61V1.28c0-.89.5-1.27 1.57-1.27h2.69C28 0 28.48.35 28.48 1.28v.6h-2.63v-.1-.08a.32.32 0 0 0-.34-.35c-.24 0-.33.14-.33.43v2.48c0 .29.09.42.33.42s.33-.13.33-.42v-.37z"/><path data-name="letter-e" d="M34.34.05h4.16v1.36h-1.58v.94h1.58V3.7h-1.58v.94h1.58V6h-4.16z"/><path d="M44.36.05h2.55l1 2.45V.05h2.35V6h-2.41l-1.14-2.8V6h-2.35z"/><path data-name="letter-e" d="M56.16.05h4.16v1.36h-1.58v.94h1.59V3.7h-1.59v.94h1.59V6h-4.17z"/></g></g></symbol></svg>