<svg xmlns="http://www.w3.org/2000/svg" viewBox="0 0 47.35 47.14"><title>icon-instagram</title><g id="icon-instagram"><path d="M29.29,13.15q-5.62-.09-11.24,0a4.39,4.39,0,0,0-4.67,4.12c-.26,2.05-.17,10-.12,11.87A4.63,4.63,0,0,0,18.09,34q5.59.09,11.18,0a4.6,4.6,0,0,0,4.81-4.79q.1-5.62,0-11.24A4.6,4.6,0,0,0,29.29,13.15Zm-5.59,17a6.62,6.62,0,1,1,6.6-6.64A6.62,6.62,0,0,1,23.69,30.18Zm6.85-11.91A1.62,1.62,0,0,1,29,16.65a1.58,1.58,0,0,1,1.6-1.51,1.55,1.55,0,0,1,1.53,1.57A1.58,1.58,0,0,1,30.54,18.27Z" fill="#231f20"/><path d="M23.68,0A23.57,23.57,0,1,0,47.25,23.57,23.6,23.6,0,0,0,23.68,0ZM36.42,29.72a6.79,6.79,0,0,1-5.26,6.34c-.72.17-13.33.27-13.63.25a6.76,6.76,0,0,1-6.22-4.84c-.25-.81-.39-13.84-.37-14.11a6.82,6.82,0,0,1,5-6.23c.76-.21,13.63-.32,13.89-.3a6.78,6.78,0,0,1,6.35,5.34C36.35,16.86,36.43,29.43,36.42,29.72Z" fill="#231f20"/><path d="M23.66,19.31a4.26,4.26,0,1,0,4.28,4.27A4.22,4.22,0,0,0,23.66,19.31Z" fill="#231f20"/></g></svg>