<svg xmlns="http://www.w3.org/2000/svg" viewBox="0 0 47.35 47.14"><title>icon-twitter</title><g id="icon-twitter"><path d="M23.68,0A23.57,23.57,0,1,0,47.25,23.57,23.6,23.6,0,0,0,23.68,0Zm9.73,18.64a14.12,14.12,0,0,1-1.5,7,13.34,13.34,0,0,1-8.81,7.11,13.63,13.63,0,0,1-11-1.78,9.19,9.19,0,0,0,7.07-2,4.79,4.79,0,0,1-4.41-3.38c1.57.24,2-.17,2-.17A4.79,4.79,0,0,1,13,20.62c1.64.79,2.08.48,2.08.48a4.93,4.93,0,0,1-1.4-6.46c4.68,5.47,10,5.12,10,5.12-.14-1.19-.14-4.35,3-5.62a5.14,5.14,0,0,1,5.47,1.16,11.71,11.71,0,0,0,3.43-1.25c-.25,1.34-2.48,2.79-2.48,2.79a11.41,11.41,0,0,0,2.8-.79A14.79,14.79,0,0,1,33.41,18.64Z" fill="#231f20"/></g></svg>