<svg xmlns="http://www.w3.org/2000/svg" viewBox="0 0 47.14 47.14" preserveAspectRatio="xMidYMid meet"><title>icon-play</title><g id="icon-play"><path d="M23.57,4A19.57,19.57,0,1,0,43.14,23.57,19.57,19.57,0,0,0,23.57,4Zm8.09,22.55-9.8,9.8a1.54,1.54,0,0,1-2.62-1.09V11.87a1.54,1.54,0,0,1,2.62-1.09l9.8,9.8A4.22,4.22,0,0,1,31.66,26.55Z" stroke="#000" stroke-miterlimit="10" stroke-width="8"/><path d="M21.86,10.78a1.54,1.54,0,0,0-2.62,1.09v23.4a1.54,1.54,0,0,0,2.62,1.09l9.8-9.8a4.22,4.22,0,0,0,0-6Z" fill="#fff"/></g></svg>