<svg xmlns="http://www.w3.org/2000/svg" viewBox="0 0 47.14 47.14"><title>icon-play</title><g id="icon-play"><path d="M23.57,0A23.57,23.57,0,1,0,47.14,23.57,23.6,23.6,0,0,0,23.57,0ZM19.23,35.27V11.87a1.54,1.54,0,0,1,2.62-1.09l9.8,9.8a4.22,4.22,0,0,1,0,6l-9.8,9.8A1.54,1.54,0,0,1,19.23,35.27Z" fill="#ed1c24"/><path d="M23.23,17.82v11.5l5.59-5.59a.22.22,0,0,0,0-.31Z" fill="#fff"/><path d="M31.66,20.58l-9.8-9.8a1.54,1.54,0,0,0-2.62,1.09v23.4a1.54,1.54,0,0,0,2.62,1.09l9.8-9.8A4.22,4.22,0,0,0,31.66,20.58Zm-2.83,3.14-5.59,5.59V17.82l5.59,5.59a.22.22,0,0,1,0,.31Z" fill="#fff"/></g></svg>