<svg xmlns="http://www.w3.org/2000/svg" viewBox="0 0 55.22 55.47"><title>icon-gallery-stroke</title><g id="icon-gallery-stroke"><path d="M47.09,0h-28A8.13,8.13,0,0,0,11,8.12v3.14H8.12A8.13,8.13,0,0,0,0,19.38v28a8.13,8.13,0,0,0,8.12,8.12h28a8.13,8.13,0,0,0,8.12-8.12V44.21h2.88a8.13,8.13,0,0,0,8.12-8.12v-28A8.13,8.13,0,0,0,47.09,0Zm3.12,36.09a3.12,3.12,0,0,1-3.12,3.12h-28A3.12,3.12,0,0,1,16,36.09v-28A3.12,3.12,0,0,1,19.13,5h28a3.12,3.12,0,0,1,3.12,3.12Zm-11,11.26a3.12,3.12,0,0,1-3.12,3.12h-28A3.12,3.12,0,0,1,5,47.35v-28a3.12,3.12,0,0,1,3.12-3.12H11V36.09a8.13,8.13,0,0,0,8.12,8.12H39.21Z"/></g></svg>