<svg xmlns="http://www.w3.org/2000/svg" viewBox="0 0 47.35 47.14"><title>icon-youtube</title><g id="icon-youtube"><path d="M28.76,22.35l-3.89-2.43-3.7-2.31a1,1,0,0,0-1.55.58,3,3,0,0,0,0,.5q0,2.44,0,4.87t0,4.87c0,.11,0,.21,0,.32a1,1,0,0,0,1.58.79l2.15-1.34,3.77-2.36c.77-.49,1.56-1,2.32-1.46a1,1,0,0,0,0-1.6C29.21,22.61,29,22.48,28.76,22.35Z" fill="#231f20"/><path d="M23.68,0A23.57,23.57,0,1,0,47.25,23.57,23.6,23.6,0,0,0,23.68,0ZM38,26.27c0,.53-.09,1.06-.14,1.59a14,14,0,0,1-.47,2.95,3.41,3.41,0,0,1-2.71,2.53,17.7,17.7,0,0,1-2.5.25c-1.48.08-3,.16-4.43.17-2.81,0-5.63,0-8.44,0-2.07,0-4.13-.14-6.19-.31a3.62,3.62,0,0,1-3.27-2.94c-.2-1.08-.29-2.19-.43-3.28,0-.31-.06-.62-.08-.93v-5.4q.07-.8.14-1.59A14.29,14.29,0,0,1,10,16.35a3.42,3.42,0,0,1,2.69-2.55,17.21,17.21,0,0,1,2.52-.25c1.47-.08,2.94-.16,4.41-.17,2.82,0,5.64,0,8.46,0,2.07,0,4.13.14,6.19.31a3.66,3.66,0,0,1,3.27,2.94c.17,1.08.29,2.17.42,3.26,0,.32.06.63.09,1Z" fill="#231f20"/></g></svg>