<svg xmlns="http://www.w3.org/2000/svg" viewBox="0 0 44.3 44.1"><title>icon-close</title><g id="icon-close"><path d="M29.88,20.45,42.94,7.39a4.39,4.39,0,0,0,.43-5.85,4.25,4.25,0,0,0-6.27-.3L23.89,14.46a2.44,2.44,0,0,1-3.45,0l-13-13A4.4,4.4,0,0,0,1.54,1a4.25,4.25,0,0,0-.3,6.27L14.44,20.45a2.44,2.44,0,0,1,0,3.45L1.64,36.71a4.4,4.4,0,0,0-.44,5.85,4.25,4.25,0,0,0,6.27.3l13-13a2.44,2.44,0,0,1,3.45,0L36.7,42.71a4.39,4.39,0,0,0,5.85.43,4.25,4.25,0,0,0,.3-6.27l-13-13A2.44,2.44,0,0,1,29.88,20.45Z"/></g></svg>