<svg xmlns="http://www.w3.org/2000/svg" viewBox="0 0 110.35 45.3" preserveAspectRatio="xMidYMid meet"><title>logo-ew-type</title><g id="logo-ew-type"><g id="word-weekly"><path id="letter-w" d="M0,8.29H7.13L8.84,25l2-16.74h6.3l2,16.68L20.94,8.29h6.57L23,39.23h-7.4l-1.82-13.7-1.82,13.7H4.53Z" fill="#231f20"/><path id="letter-e" d="M34.83,26.68V32A1.06,1.06,0,0,0,36,33.26h.66A1.06,1.06,0,0,0,37.93,32V29.12h7v3.7c0,4.47-2.27,6.74-6.74,6.74H34.39c-4.48,0-6.74-2.27-6.74-6.74V14.7c0-4.48,2.27-6.74,6.74-6.74h3.76c4.48,0,6.74,2.27,6.74,6.74v12Zm0-5.64h3V15.36a1.06,1.06,0,0,0-1.22-1.22H36a1.06,1.06,0,0,0-1.22,1.22Z" fill="#231f20"/><path id="letter-e-2" data-name="letter-e" d="M53.11,26.68V32a1.06,1.06,0,0,0,1.22,1.22H55A1.06,1.06,0,0,0,56.21,32V29.12h7v3.7c0,4.47-2.27,6.74-6.74,6.74H52.67c-4.48,0-6.74-2.27-6.74-6.74V14.7C45.93,10.22,48.2,8,52.67,8h3.76c4.47,0,6.74,2.27,6.74,6.74v12Zm0-5.64h3V15.36a1.06,1.06,0,0,0-1.22-1.22h-.55a1.06,1.06,0,0,0-1.22,1.22Z" fill="#231f20"/><path id="letter-k" d="M82.52,8.29l-4,15.14,3.81,15.8H74.62l-3-14.64V39.23H64.29V0h7.29V22.87L75,8.29Z" fill="#231f20"/><path id="letter-l" d="M83.32,0h7.29V39.23H83.32Z" fill="#231f20"/><path id="letter-y" d="M95.21,45.3l1.88-8.18L91.4,8.29h7.24l2.1,14.47,2.71-14.47h6.91l-8.23,37Z" fill="#231f20"/></g><g id="word-eugene"><path id="letter-e-3" data-name="letter-e" d="M.9.05H5.06V1.41H3.47v.94H5.06V3.7H3.47v.94H5.06V6H.9Z" fill="#231f20"/><path id="letter-u" d="M16.74,4.61c0,1.1-.46,1.43-1.63,1.43H12.48c-1.13,0-1.56-.37-1.56-1.43V.05H13.5V4.26c0,.29.09.42.33.42s.33-.13.33-.42V.05h2.58Z" fill="#231f20"/><path id="letter-g" d="M25.5,3.89V2.57h3V6H27.15l-.23-.43c-.17.36-.6.48-1.37.48h-1.4C23,6,22.58,5.67,22.58,4.61V1.28c0-.89.5-1.27,1.57-1.27h2.69C28,0,28.48.35,28.48,1.28v.6H25.85v-.1s0-.05,0-.08a.32.32,0,0,0-.34-.35c-.24,0-.33.14-.33.43V4.26c0,.29.09.42.33.42s.33-.13.33-.42V3.89Z" fill="#231f20"/><path id="letter-e-4" data-name="letter-e" d="M34.34.05H38.5V1.41H36.92v.94H38.5V3.7H36.92v.94H38.5V6H34.34Z" fill="#231f20"/><path id="letter-n" d="M44.36.05h2.55l1,2.45V.05h2.35V6H47.85L46.71,3.2V6H44.36Z" fill="#231f20"/><path id="letter-e-5" data-name="letter-e" d="M56.16.05h4.16V1.41H58.74v.94h1.59V3.7H58.74v.94h1.59V6H56.16Z" fill="#231f20"/></g></g></svg>