<svg xmlns="http://www.w3.org/2000/svg" viewBox="0 0 69 75.7"><title>logo-backbeat</title><g id="logo-backbeat"><path d="M67.45,32.12a10.2,10.2,0,0,0,1-4.51,10.35,10.35,0,0,0-1.66-5.55,12.15,12.15,0,0,0-3.47-3.52,11.65,11.65,0,0,0,1.79-2.91,10.45,10.45,0,0,0,.83-4.28,10.2,10.2,0,0,0-1.09-4.49A11.82,11.82,0,0,0,62,3.23a13.36,13.36,0,0,0-4.1-2.4,13.72,13.72,0,0,0-5-.83L9.68.62l.1,6.84,10.87-.15.09,6.29,7.68-.11-.09-6.24h.29L56,6.85l4.2,4.62-4.07,4.74-4.66.07.1,6.87,4.2-.06a7.18,7.18,0,0,1,3.71,1.37,4.6,4.6,0,0,1,1.28,1.46,3.76,3.76,0,0,1,.46,1.79,3.71,3.71,0,0,1-.41,1.75A4.84,4.84,0,0,1,59.61,31a6.22,6.22,0,0,1-1.94,1.07,7.62,7.62,0,0,1-2.41.41h-.7l-25.85.37-.09-6.21-7.68.11L21,33h0l.1,6.83,30.73-.44v0l3.83-.06a14,14,0,0,0,5-1,13.29,13.29,0,0,0,4.06-2.52A11.81,11.81,0,0,0,67.45,32.12Z" fill="#231f20"/><path d="M59,48.71l-10.87.15L48,42.52l-7,.1.09,6.26-3.17,0h0l-26.27.37-4.2-4.62,4.07-4.74,6.38-.09L17.84,33l-2.68,0a7.39,7.39,0,0,1-1.71-.32,5.92,5.92,0,0,1-1.94-1,5.35,5.35,0,0,1-1.3-1.51,3.59,3.59,0,0,1-.48-1.77,3.5,3.5,0,0,1,.43-1.74,5.37,5.37,0,0,1,1.26-1.55,5.94,5.94,0,0,1,1.91-1.07,7.62,7.62,0,0,1,2.41-.41l1.16,0,11.34-.16v0l12.52-.18.09,6.21,7.67-.09-.17-13.1-26.86.38-.71,0-4.69.07-2,0v0a13.46,13.46,0,0,0-7.77,3.42A11.81,11.81,0,0,0,3.59,24a10.2,10.2,0,0,0-1,4.52,10.46,10.46,0,0,0,1,4.26,11.67,11.67,0,0,0,1.87,2.86,12.14,12.14,0,0,0-3.36,3.62,10.34,10.34,0,0,0-1.5,5.6,10.19,10.19,0,0,0,1.09,4.49A11.8,11.8,0,0,0,4.51,53a13.29,13.29,0,0,0,4.13,2.4,13.9,13.9,0,0,0,4.81.83h.22l45.42-.65Z" fill="#231f20"/><path d="M3.46,71.17,3,71c-.32-.1-.81-.26-.81-.67s.45-.59.78-.59a1.92,1.92,0,0,1,1.21.47l.73-1.42a4.81,4.81,0,0,0-2.2-.58A2.28,2.28,0,0,0,.28,70.61c0,1.36.75,1.66,1.9,2,.39.11,1.11.29,1.11.8s-.46.71-.89.71a2.51,2.51,0,0,1-1.62-.73L0,74.85a4.34,4.34,0,0,0,2.47.8,3.08,3.08,0,0,0,2-.66,2.39,2.39,0,0,0,.73-1.89C5.19,72,4.44,71.46,3.46,71.17Z" fill="#231f20"/><polygon points="9.2 75.46 13.2 75.46 13.2 73.92 11.02 73.92 11.02 72.7 13.08 72.7 13.08 71.16 11.02 71.16 11.02 69.98 13.2 69.98 13.2 68.43 9.2 68.43 9.2 75.46" fill="#231f20"/><path d="M20.6,71.17,20.13,71c-.32-.1-.81-.26-.81-.67s.45-.59.78-.59a1.92,1.92,0,0,1,1.21.47L22,68.82a4.81,4.81,0,0,0-2.2-.58,2.28,2.28,0,0,0-2.42,2.36c0,1.36.75,1.66,1.9,2,.39.11,1.11.29,1.11.8s-.46.71-.89.71a2.51,2.51,0,0,1-1.62-.73l-.78,1.47a4.34,4.34,0,0,0,2.47.8,3.08,3.08,0,0,0,2-.66,2.39,2.39,0,0,0,.73-1.89C22.33,72,21.58,71.46,20.6,71.17Z" fill="#231f20"/><path d="M29.48,71.17,29,71c-.32-.1-.81-.26-.81-.67s.45-.59.78-.59a1.92,1.92,0,0,1,1.21.47l.73-1.42a4.81,4.81,0,0,0-2.2-.58,2.28,2.28,0,0,0-2.42,2.36c0,1.36.75,1.66,1.9,2,.39.11,1.11.29,1.11.8s-.46.71-.89.71a2.51,2.51,0,0,1-1.62-.73L26,74.85a4.34,4.34,0,0,0,2.47.8,3.08,3.08,0,0,0,2-.66,2.39,2.39,0,0,0,.73-1.89C31.21,72,30.46,71.46,29.48,71.17Z" fill="#231f20"/><rect x="35.21" y="68.43" width="1.83" height="7.03" fill="#231f20"/><path d="M44.9,68.2a3.75,3.75,0,1,0,3.89,3.62A3.75,3.75,0,0,0,44.9,68.2Zm0,5.72a2,2,0,0,1-2-2.1,2,2,0,0,1,4,0A2,2,0,0,1,44.9,73.92Z" fill="#231f20"/><polygon points="57.97 72.73 57.95 72.73 54.6 68.43 52.78 68.43 52.78 75.46 54.6 75.46 54.6 71.16 54.62 71.16 57.97 75.46 59.8 75.46 59.8 68.43 57.97 68.43 57.97 72.73" fill="#231f20"/><path d="M67.27,71.17,66.8,71c-.32-.1-.81-.26-.81-.67s.45-.59.78-.59a1.92,1.92,0,0,1,1.21.47l.73-1.42a4.81,4.81,0,0,0-2.2-.58,2.28,2.28,0,0,0-2.42,2.36c0,1.36.75,1.66,1.9,2,.39.11,1.11.29,1.11.8s-.46.71-.89.71a2.51,2.51,0,0,1-1.62-.73l-.78,1.47a4.34,4.34,0,0,0,2.47.8,3.08,3.08,0,0,0,2-.66A2.39,2.39,0,0,0,69,73.09C69,72,68.25,71.46,67.27,71.17Z" fill="#231f20"/></g></svg>