<svg xmlns="http://www.w3.org/2000/svg" viewBox="0 0 72.72 62.1"><title>logo-ew-mark</title><g id="logo-ew-mark"><g id="letters"><path id="letter-e" d="M0,23.87V53a3,3,0,0,0,2.37,2.9l4.73,1h0l21.62,4.35a3,3,0,0,0,3.54-2.9V57.21a3,3,0,0,0-2.37-2.9L9.47,50.21a3,3,0,0,1-2.37-2.9V44.67a3,3,0,0,1,3.54-2.9l18.09,3.64a3,3,0,0,0,3.54-2.9V41.45a3,3,0,0,0-2.37-2.9L9.47,34.44a3,3,0,0,1-2.37-2.9V28.9A3,3,0,0,1,10.63,26l18.09,3.64a3,3,0,0,0,3.54-2.9V25.68a3,3,0,0,0-2.37-2.9L3.54,17.48A3,3,0,0,0,0,20.38Z" fill="#231f20"/><path id="letter-w" d="M65.62,20.64V47.49a3,3,0,0,1-2.34,2.89h-.06a3,3,0,0,1-3.57-2.89V23.33a3,3,0,0,0-3.59-2.88l-1.19.26a3,3,0,0,0-2.32,2.88v26.7a3,3,0,0,1-2.34,2.89l-1.13.24a3,3,0,0,1-3.57-2.89V26.3a3,3,0,0,0-3.59-2.88l-1.19.26a3,3,0,0,0-2.32,2.88V59.14A3,3,0,0,0,42,62L70.38,56a3,3,0,0,0,2.34-2.89V20.38a3,3,0,0,0-3.59-2.88l-1.19.26A3,3,0,0,0,65.62,20.64Z" fill="#231f20"/></g><path id="mark" d="M65.81,9.87l-30,6.34a1.81,1.81,0,0,1-.76,0L7.82,10.29a1.81,1.81,0,0,1,0-3.52L35.58.05a1.81,1.81,0,0,1,.8,0l29.44,6.3A1.8,1.8,0,0,1,65.81,9.87Z" fill="#BD252B"/></g></svg>